<?xml version="1.0" encoding="UTF-8"?>
<svg width="17px" height="16px" viewBox="0 0 17 16" version="1.1" xmlns="http://www.w3.org/2000/svg" xmlns:xlink="http://www.w3.org/1999/xlink">
    <!-- Generator: Sketch 55.1 (78136) - https://sketchapp.com -->
    <title>Group</title>
    <desc>Created with Sketch.</desc>
    <g id="DESKTOP" stroke="none" stroke-width="1" fill="none" fill-rule="evenodd">
        <g id="icon-menu" transform="translate(-4.000000, -3.000000)" fill="#525E66">
            <g id="Group" transform="translate(4.000000, 2.000000)">
                <path d="M-1.2119761,8.00010042 C-1.49217509,7.99500064 -1.75280214,8.1844572 -1.89405806,8.49592348 C-2.03531398,8.80738975 -2.03531398,9.19261025 -1.89405806,9.50407652 C-1.75280214,9.8155428 -1.49217509,10.0049994 -1.2119761,9.99989958 L18.2119761,9.99989958 C18.4921751,10.0049994 18.7528021,9.8155428 18.8940581,9.50407652 C19.035314,9.19261025 19.035314,8.80738975 18.8940581,8.49592348 C18.7528021,8.1844572 18.4921751,7.99500064 18.2119761,8.00010042 L-1.2119761,8.00010042 Z" id="Shape" transform="translate(8.500000, 9.000000) rotate(-315.000000) translate(-8.500000, -9.000000) "></path>
                <path d="M-1.2119761,8.00010042 C-1.49217509,7.99500064 -1.75280214,8.1844572 -1.89405806,8.49592348 C-2.03531398,8.80738975 -2.03531398,9.19261025 -1.89405806,9.50407652 C-1.75280214,9.8155428 -1.49217509,10.0049994 -1.2119761,9.99989958 L18.2119761,9.99989958 C18.4921751,10.0049994 18.7528021,9.8155428 18.8940581,9.50407652 C19.035314,9.19261025 19.035314,8.80738975 18.8940581,8.49592348 C18.7528021,8.1844572 18.4921751,7.99500064 18.2119761,8.00010042 L-1.2119761,8.00010042 Z" id="Shape" transform="translate(8.500000, 9.000000) rotate(-45.000000) translate(-8.500000, -9.000000) "></path>
            </g>
        </g>
    </g>
</svg>
